Coordinates
version=1
nRows=14
nColumns=36
inDegrees=yes

Units are S.I. units (second, meters, Newtons, ...)
If the header above contains a line with 'inDegrees', this indicates whether rotational values are in degrees (yes) or radians (no).

endheader
time	pelvis_tilt	pelvis_list	pelvis_rotation	pelvis_tx	pelvis_ty	pelvis_tz	hip_flexion_r	hip_adduction_r	hip_rotation_r	knee_angle_r	knee_angle_r_beta	ankle_angle_r	subtalar_angle_r	mtp_angle_r	hip_flexion_l	hip_adduction_l	hip_rotation_l	knee_angle_l	knee_angle_l_beta	ankle_angle_l	subtalar_angle_l	mtp_angle_l	lumbar_extension	lumbar_bending	lumbar_rotation	arm_flex_r	arm_add_r	arm_rot_r	elbow_flex_r	pro_sup_r	arm_flex_l	arm_add_l	arm_rot_l	elbow_flex_l	pro_sup_l
      1.73333330	     -5.05935557	     -0.96403800	     -2.61071765	     -5.08074015	      1.19209073	      0.24701446	      4.96144667	      5.17212430	     -6.37656113	      6.51618335	      0.11372885	      6.26798280	     -7.00357155	     -7.49999987	     15.13829384	     -2.65076546	     -2.85490767	     29.27801274	      0.51099772	      5.90890037	    -12.14842459	     -7.49999987	     -5.78213541	      1.57409570	     -0.10285982	      1.93817506	     -7.09526106	      0.54007240	     32.13053998	     81.08158408	      2.08419768	     -8.54910002	      0.46025230	     33.78227334	     87.87854155
      1.74166670	     -4.94843642	     -1.12919642	     -2.50936065	     -5.07795459	      1.19360048	      0.24715456	      4.76134990	      5.36318861	     -6.36783682	      6.64125762	      0.11591181	      6.25409014	     -7.20623125	     -7.49999987	     15.61209026	     -2.89679068	     -2.74737810	     30.57247077	      0.53359028	      5.62993780	    -12.29262777	     -7.49999987	     -5.99311567	      1.79553288	     -0.05402669	      1.92277807	     -7.11329164	      0.49121929	     32.23609761	     80.13105039	      1.99821571	     -8.46867564	      0.41309064	     33.97757150	     86.78715314
      1.75000000	     -4.84230094	     -1.31078082	     -2.41684150	     -5.07432519	      1.19269012	      0.24721582	      4.56816439	      5.55765372	     -6.36543504	      6.85668018	      0.11967164	      6.35381740	     -7.40059970	     -7.49999987	     16.15163853	     -3.16515620	     -2.65912454	     32.09286204	      0.56012611	      5.38983232	    -12.39817251	     -7.49999987	     -6.15867888	      2.03783524	     -0.06267283	      1.98316637	     -7.15589557	      0.54808418	     32.20416034	     79.34362674	      1.86803283	     -8.36682652	      0.46305289	     33.97291529	     85.87081679
      1.75833330	     -4.68972792	     -1.56971932	     -2.35225630	     -5.06977047	      1.19353357	      0.24715977	      4.25091581	      5.82500422	     -6.39524880	      7.04943319	      0.12303582	      6.45257352	     -7.51235627	     -7.49999987	     16.63365812	     -3.48749009	     -2.48503052	     33.74352843	      0.58893567	      5.25925393	    -12.51526691	     -7.49999987	     -6.33864079	      2.37421589	      0.02561190	      2.01047180	     -7.25274171	      0.60056181	     32.15220947	     79.45900670	      1.68339274	     -8.24087990	      0.50427646	     33.93057994	     85.99352541
      1.76666670	     -4.58533056	     -1.84988418	     -2.23771528	     -5.06475771	      1.19224117	      0.24697221	      3.91083357	      6.11595105	     -6.40270028	      7.20642891	      0.12577591	      6.54633635	     -7.71938095	     -7.49999987	     17.18399244	     -3.81388845	     -2.26195120	     35.51946401	      0.61993160	      5.34647890	    -12.52030235	     -7.49999987	     -6.43388353	      2.77679611	     -0.02488871	      1.95160578	     -7.35718666	      0.66923308	     32.32261600	     78.86962800	      1.35621624	     -8.10073348	      0.44489790	     33.98066045	     85.27865747
      1.77500000	     -4.34848497	     -2.11921375	     -2.19896101	     -5.05955216	      1.19281824	      0.24682737	      3.37196578	      6.39537616	     -6.35245539	      7.34798821	      0.12824659	      6.86135936	     -7.83078790	     -7.49999987	     17.53940705	     -4.10626518	     -2.01814478	     37.26084101	      0.65032436	      5.36466491	    -12.73235584	     -7.49999987	     -6.65244661	      3.08967422	      0.11171329	      1.95384665	     -7.45507691	      0.68887187	     32.30488366	     78.94985371	      1.09578630	     -7.94815795	      0.44473615	     33.92299102	     85.36257788
      1.78333330	     -4.34490319	     -2.49773932	     -2.04118050	     -5.05408182	      1.19158728	      0.24631727	      3.02463792	      6.78529325	     -6.38496634	      7.45950120	      0.13019286	      7.16246821	     -7.98355613	     -7.49999987	     18.20642141	     -4.45132843	     -1.56257722	     39.10150767	      0.68245005	      5.82910170	    -12.90881270	     -7.49999987	     -6.58463103	      3.65561997	      0.10259541	      1.66294335	     -7.66657573	      0.66694193	     32.96497598	     78.19189498	      0.49166590	     -7.73252933	      0.38267465	     34.41666637	     84.47213842
      1.79166670	     -4.04843861	     -2.69983154	     -2.00905824	     -5.04869586	      1.19162070	      0.24615945	      2.32923126	      6.99328676	     -6.31569941	      7.53553517	      0.13151990	      7.63940687	     -8.05258253	     -7.49999987	     18.41766334	     -4.60744667	     -1.23781743	     40.59576818	      0.70852982	      5.99007758	    -13.15795385	     -7.49999987	     -6.81827922	      3.91272008	      0.18664920	      1.71501346	     -7.69643997	      0.69311362	     32.91653927	     78.28323553	      0.21867464	     -7.63598123	      0.33956021	     34.17484504	     84.56285286
      1.80000000	     -3.75947638	     -2.99854567	     -1.88631353	     -5.04347008	      1.19082822	      0.24566614	      1.61229352	      7.29030737	     -6.29845536	      7.58523616	      0.13238735	      8.17183377	     -8.00857851	     -7.49999987	     18.73580083	     -4.81667290	     -0.76818175	     42.08761061	      0.73456738	      6.34240127	    -13.53897569	     -7.49999987	     -7.03940659	      4.35941726	      0.16117584	      1.72719208	     -7.85682257	      0.71828422	     33.01113121	     78.41488535	     -0.12473926	     -7.40730328	      0.27282538	     33.98653056	     84.68937574
      1.80833330	     -3.51439816	     -3.24128393	     -1.79663060	     -5.03861233	      1.18932699	      0.24526157	      0.95254430	      7.53272878	     -6.28113812	      7.66208586	      0.13372863	      8.84998790	     -7.87817777	     -7.49999987	     19.15324868	     -4.96780462	     -0.33356015	     43.43288323	      0.75804682	      6.56238245	    -14.00422787	     -7.49999987	     -7.22241879	      4.69095038	      0.15749369	      1.74373676	     -7.96623567	      0.77216028	     33.25569450	     78.57061305	     -0.48656770	     -7.24483007	      0.15238922	     33.86769891	     84.82739602
      1.81666670	     -3.33237184	     -3.40233728	     -1.73371490	     -5.03417227	      1.18751143	      0.24481092	      0.39922263	      7.67271523	     -6.30069473	      7.79927620	      0.13612305	      9.70290391	     -7.58043593	     -7.49999987	     19.74002214	     -5.02678393	      0.06633481	     44.67221368	      0.77967721	      6.60294161	    -14.65380245	     -7.49999987	     -7.40083972	      4.92697797	      0.15313957	      1.71334203	     -8.06045444	      0.88260838	     33.67143101	     78.81174192	     -0.85819287	     -7.10060873	     -0.07908800	     33.81660966	     85.03138180
      1.82500000	     -3.10293229	     -3.49208002	     -1.77995567	     -5.03018040	      1.18595157	      0.24443417	     -0.18787239	      7.74354180	     -6.01978661	      7.94415982	      0.13865175	     10.56570059	     -7.62072198	     -7.49999987	     20.32987865	     -5.03266649	      0.32991582	     45.72566844	      0.79806347	      6.68051887	    -15.15280557	     -7.49999987	     -7.60155093	      5.03006023	      0.29506958	      1.76617899	     -8.09368289	      0.91925575	     33.77998870	     78.88094388	     -1.10141286	     -7.00844340	     -0.13484742	     33.73831785	     85.08989212
      1.83333330	     -2.90357683	     -3.64829658	     -1.83616747	     -5.02675031	      1.18387837	      0.24380909	     -0.62905340	      7.85261460	     -5.79206445	      8.27019872	      0.14434220	     11.49248361	     -7.65558911	     -7.49999987	     21.12747432	     -5.07563051	      0.66484119	     46.76229673	      0.81615604	      6.69210872	    -15.85640439	     -7.49999987	     -7.86849429	      5.25751901	      0.46056994	      1.91653555	     -8.21221883	      0.97211331	     33.98978201	     78.96345892	     -1.32241475	     -6.83709410	     -0.19412947	     33.66416985	     85.15713831
      1.84166670	     -3.02545175	     -3.76203415	     -1.96367891	     -5.02341835	      1.18332039	      0.24292864	     -0.57462374	      7.85525789	     -5.81520932	      8.84195489	      0.15432123	     12.41707347	     -7.36621858	     -7.49999987	     22.33135219	     -5.00448935	      1.06685811	     47.53132119	      0.82957805	      6.12677723	    -17.22775449	     -7.49999987	     -7.75942893	      5.49769995	      0.68596600	      1.83289776	     -8.48402259	      1.26305079	     34.66110856	     79.27280371	     -1.63429359	     -6.53517589	     -0.49190026	     33.56825312	     85.39899390
